<?xml version="1.0" encoding="UTF-8" standalone="no"?>
<!-- Created with Inkscape (http://www.inkscape.org/) -->

<svg
   width="210mm"
   height="297mm"
   viewBox="0 0 210 297"
   version="1.1"
   id="svg1"
   inkscape:version="1.3.2 (091e20ef0f, 2023-11-25)"
   sodipodi:docname="favicon.svg"
   xmlns:inkscape="http://www.inkscape.org/namespaces/inkscape"
   xmlns:sodipodi="http://sodipodi.sourceforge.net/DTD/sodipodi-0.dtd"
   xmlns="http://www.w3.org/2000/svg"
   xmlns:svg="http://www.w3.org/2000/svg">
  <sodipodi:namedview
     id="namedview1"
     pagecolor="#505050"
     bordercolor="#eeeeee"
     borderopacity="1"
     inkscape:showpageshadow="0"
     inkscape:pageopacity="0"
     inkscape:pagecheckerboard="0"
     inkscape:deskcolor="#505050"
     inkscape:document-units="mm"
     inkscape:zoom="4.7574603"
     inkscape:cx="544.72341"
     inkscape:cy="623.96737"
     inkscape:window-width="1350"
     inkscape:window-height="728"
     inkscape:window-x="0"
     inkscape:window-y="0"
     inkscape:window-maximized="1"
     inkscape:current-layer="layer1" />
  <defs
     id="defs1">
    <clipPath
       clipPathUnits="userSpaceOnUse"
       id="clipPath7">
      <path
         d="m 137.48928,168.97767 q -0.26874,0 -0.42754,-0.15881 -0.14659,-0.1588 -0.14659,-0.35425 0,-0.19545 0.0489,-0.40311 l 1.51474,-6.92625 q 0.0489,-0.21988 0.20766,-0.34204 0.1588,-0.13437 0.3909,-0.13437 0.42755,0 0.56192,0.41533 l 1.7224,5.41151 1.95449,-5.43594 q 0.14659,-0.3909 0.61078,-0.3909 0.20767,0 0.34204,0.13437 0.14659,0.12216 0.19545,0.34204 l 1.55138,6.91403 q 0.0611,0.28096 0.0611,0.36647 0,0.2321 -0.17102,0.40311 -0.17102,0.15881 -0.42754,0.15881 -0.24432,0 -0.3909,-0.12216 -0.14659,-0.13437 -0.19545,-0.34204 l -1.12384,-5.10612 -1.8812,5.17942 q -0.0611,0.18323 -0.21988,0.29317 -0.1588,0.0977 -0.35425,0.0977 -0.42755,0 -0.56192,-0.41533 l -1.58803,-4.97175 -1.07497,4.91067 q -0.0489,0.21988 -0.20767,0.35425 -0.1588,0.12216 -0.3909,0.12216 z m 14.96411,0.0122 q -0.43976,0 -0.57413,-0.41533 l -0.87953,-2.54084 -2.49198,0.5497 -0.79401,2.00336 q -0.0733,0.17102 -0.21988,0.28096 -0.13437,0.10994 -0.34204,0.10994 -0.24431,0 -0.42755,-0.17102 -0.18323,-0.17102 -0.18323,-0.40312 0,-0.1588 0.0855,-0.36646 l 0.48862,-1.22156 q -0.0733,-0.0244 -0.10994,-0.0489 -0.3176,-0.1588 -0.3176,-0.53748 0,-0.21988 0.12215,-0.37869 0.13437,-0.1588 0.34204,-0.20766 l 0.45198,-0.0977 1.80791,-4.59306 q 0.0733,-0.18324 0.23209,-0.28096 0.15881,-0.0977 0.34204,-0.0977 0.19545,0 0.34204,0.0977 0.14658,0.0977 0.21988,0.30539 l 2.4309,7.0484 q 0.0122,0.0244 0.0489,0.14659 0.0366,0.10994 0.0366,0.23209 0,0.2321 -0.17102,0.41533 -0.17102,0.17102 -0.43976,0.17102 z m -1.85677,-4.09222 -0.65964,-1.96672 -0.91617,2.30875 z m 4.08001,4.06779 q -0.2321,0.0122 -0.41533,-0.17102 -0.18323,-0.18323 -0.18323,-0.41533 v -7.12169 q 0,-0.24431 0.17101,-0.41533 0.18324,-0.18324 0.43977,-0.18324 0.24431,0 0.41533,0.18324 0.18323,0.17102 0.18323,0.41533 v 6.47427 l 3.32264,-0.21989 q 0.25653,-0.0122 0.42755,0.15881 0.17102,0.1588 0.17102,0.42754 0,0.21988 -0.17102,0.41533 -0.1588,0.18324 -0.37868,0.19545 z"
         id="path7"
         style="font-weight:bold;font-size:12.2156px;line-height:1;font-family:'Comic Neue';-inkscape-font-specification:'Comic Neue Bold';text-align:center;text-anchor:middle;fill:#254284;stroke-width:1.59192;stroke-linecap:round"
         aria-label="MAL" />
    </clipPath>
  </defs>
  <g
     inkscape:label="Layer 1"
     inkscape:groupmode="layer"
     id="layer1">
    <rect
       style="fill:#2e51a2;fill-opacity:1;stroke-width:5.57616;stroke-linecap:round"
       id="rect9"
       width="23.603001"
       height="23.603001"
       x="135.20207"
       y="153.72292"
       ry="2.7860804" />
    <rect
       style="fill:#254284;fill-opacity:1;stroke-width:5.57616;stroke-linecap:round"
       id="rect2"
       width="23.603001"
       height="23.603001"
       x="135.20207"
       y="153.72292"
       ry="2.7860804"
       clip-path="url(#clipPath7)" />
    <text
       xml:space="preserve"
       style="font-style:normal;font-variant:normal;font-weight:bold;font-stretch:normal;font-size:12.2156px;line-height:1;font-family:'Comic Neue';-inkscape-font-specification:'Comic Neue Bold';text-align:center;text-anchor:middle;fill:#ffffff;fill-opacity:1;stroke-width:1.59192;stroke-linecap:round"
       x="146.94249"
       y="169.64719"
       id="text9"><tspan
         sodipodi:role="line"
         style="font-style:normal;font-variant:normal;font-weight:bold;font-stretch:normal;font-family:'Comic Neue';-inkscape-font-specification:'Comic Neue Bold';fill:#ffffff;stroke-width:1.59192"
         x="146.94249"
         y="169.64719"
         id="tspan12">MAL</tspan></text>
  </g>
</svg>
